<?xml version="1.0" encoding="utf-8"?>
<!DOCTYPE svg PUBLIC "-//W3C//DTD SVG 1.0//EN" "http://www.w3.org/TR/2001/REC-SVG-20010904/DTD/svg10.dtd">
<svg version="1.0" xmlns="http://www.w3.org/2000/svg" width="1013px" height="222px" viewBox="0 0 1013 222" preserveAspectRatio="xMidYMid meet">
 <g fill="#000000">
  <path d="M424.2 157.9 c-8 -1.2 -15.7 -4.6 -20.6 -9.2 l-3.9 -3.7 4.8 -5.2 c2.7 -2.9 5.2 -5.7 5.7 -6.2 0.5 -0.6 2.1 0.3 4 2.3 6.5 6.6 16.2 9.4 24.6 7.1 3.5 -0.9 4.6 -1.8 5.8 -4.5 1.7 -4.1 0.6 -7.7 -2.8 -9.9 -1.3 -0.8 -7.5 -2.9 -13.8 -4.6 -16.6 -4.5 -23.1 -9.7 -24.6 -19.5 -2.7 -18.1 14.2 -30.1 37.1 -26.5 7.6 1.2 16.1 4.8 19 8 1.8 2 1.8 2.2 -3.5 7.5 l-5.3 5.4 -4.5 -3.2 c-3.9 -2.8 -5.4 -3.2 -12.1 -3.5 -6.6 -0.3 -8 -0.1 -10.3 1.8 -2.2 1.7 -2.8 3 -2.8 6 0 5.2 2 6.5 16.7 10.2 6.4 1.6 13.6 4.1 15.9 5.4 14.3 8.4 12.8 31.1 -2.6 38.9 -4.1 2.1 -15.9 4.7 -19.5 4.4 -0.5 -0.1 -3.8 -0.6 -7.3 -1z"/>
  <path d="M503.9 158 c-6.2 -1.1 -10.1 -3.2 -13.7 -7.5 -4.8 -5.9 -5.4 -9.2 -5.9 -34.2 l-0.5 -23.3 -5.9 0 -5.9 0 0 -7 0 -7 6 0 6 0 0 -7.9 0 -7.9 7.3 -1.2 c3.9 -0.6 8.2 -1.3 9.5 -1.6 2.2 -0.4 2.2 -0.3 2.2 9.1 l0 9.5 11.5 0 11.5 0 0 7 0 7 -11.6 0 -11.5 0 0.3 22.1 0.3 22.1 2.9 2.5 c2.5 2.1 3.6 2.4 8 2 2.8 -0.2 6 -0.7 7.2 -1.1 1.8 -0.7 2.3 0 4.3 5.4 1.3 3.4 2 6.7 1.8 7.5 -1.2 3.1 -15.9 5.9 -23.8 4.5z"/>
  <path d="M556.1 157.9 c-10.5 -2.1 -16.9 -9.1 -17.8 -19.7 -1.4 -15.6 5.7 -22.3 29 -27.2 10.7 -2.2 15.1 -4 16.1 -6.5 1.2 -3.2 0.6 -7.5 -1.4 -9.5 -5.6 -5.6 -21.2 -3.1 -30.2 4.9 l-3.7 3.2 -4.2 -6.2 -4.2 -6.3 3.4 -2.8 c9.5 -8 24.9 -12 37.5 -9.9 9.1 1.6 13.7 4.2 17.6 9.8 l3.3 4.8 0.5 23.6 c0.6 26.1 0.8 26.9 6.6 26.9 3.2 0 3.4 0.2 3.4 3.4 0 1.8 0.3 4.7 0.6 6.3 0.6 2.9 0.4 3.1 -4.1 4.2 -9.1 2.3 -18.4 -1 -21.1 -7.4 -0.8 -1.9 -1.8 -3.5 -2.2 -3.5 -0.5 0 -2.4 1.9 -4.2 4.1 -5.3 6.6 -15.3 9.7 -24.9 7.8z m21.6 -15.7 c4.2 -3 6.1 -7.4 6.9 -16.6 l0.7 -7.9 -2.4 0.6 c-20.4 5.1 -22 5.7 -24.7 9.7 -1.8 2.6 -2.2 4.4 -1.8 6.9 0.6 4.2 3.1 7.9 5.9 9.1 3.6 1.6 12.1 0.6 15.4 -1.8z"/>
  <path d="M268 105 l0 -52 10 0 10 0 0 52 0 52 -10 0 -10 0 0 -52z"/>
  <path d="M314 118 l0 -39 9 0 9 0 0 5.4 c0 6 1.5 8 3.7 5 6.1 -8.5 12.5 -11.7 23.3 -11.8 15.8 0 23.1 6.9 25 23.7 0.6 4.5 1 18.9 1 32 l0 23.7 -9.4 0 -9.5 0 -0.3 -28.5 -0.3 -28.5 -3.3 -3.2 c-3.1 -3.1 -3.6 -3.3 -10.5 -3.3 -6.4 0 -7.8 0.3 -10.9 2.7 -6.8 5.2 -7.3 7.3 -7.6 35.6 l-0.3 25.2 -9.5 0 -9.4 0 0 -39z"/>
  <path d="M630 105 l0 -52 32.5 0 32.5 0 0 8 0 8 -23 0 -23 0 0 14.5 0 14.5 21 0 21 0 0 8 0 8 -21 0 -21 0 0 21.5 0 21.5 -9.5 0 -9.5 0 0 -52z"/>
  <path d="M713 118 l0 -39 9.5 0 9.5 0 0 39 0 39 -9.5 0 -9.5 0 0 -39z"/>
  <path d="M747.4 155.4 c0.3 -0.9 5.2 -9.7 10.8 -19.7 5.5 -10 10.1 -18.6 10.1 -19.2 0 -0.5 -3.8 -7.7 -8.5 -16 -4.7 -8.2 -9.3 -16.5 -10.2 -18.2 l-1.7 -3.3 9.8 0 9.8 0 6.8 13 c3.8 7.2 7.4 13 8.1 13 0.7 0 4.3 -5.8 8.1 -13 l6.8 -13 9.3 0 c5.2 0 9.4 0.3 9.4 0.6 0 0.3 -3.5 6.9 -7.9 14.7 -4.3 7.8 -8.7 16 -9.9 18.3 l-2.1 4.1 6.8 12.4 c3.7 6.8 8.6 15.9 10.9 20.2 l4.1 7.7 -9.9 0 -9.9 0 -7.3 -14.2 c-4.1 -7.9 -8 -14.4 -8.8 -14.6 -1 -0.2 -3.9 4.5 -8.8 14.3 l-7.3 14.5 -9.6 0 c-8.3 0 -9.4 -0.2 -8.9 -1.6z"/>
  <path d="M717.4 67 c-3.4 -1.3 -6.4 -5.9 -6.4 -9.7 0 -7.6 5.3 -12.1 13.1 -11 7.8 1 11.6 7.8 8.5 15.1 -2.2 5.4 -9.3 8 -15.2 5.6z"/>
 </g>
 <g fill="#ffa600">
  <path d="M115.8 164.5 l-17.8 -17.4 -12.7 12.7 c-7.1 7 -14 13.7 -15.6 15 -4 3.2 -9.8 6.2 -12.2 6.2 -5.1 0 -14.5 -10.1 -14.5 -15.5 0 -7.5 47.2 -52.5 55 -52.5 3.5 0 39.1 33.1 48.1 44.6 4.5 5.9 4.6 6.6 1.8 10.2 -2.8 3.7 -13.1 14.2 -13.8 14.2 -0.3 0 -8.6 -7.9 -18.3 -17.5z"/>
  <path d="M178.5 154.1 c-9.9 -8.4 -39.5 -37.9 -48.3 -48.1 -11.3 -13.2 -12.8 -18.8 -6.6 -24.6 6.4 -6.1 10.4 -5.8 19.1 1.5 8 6.7 62.3 60.4 62.3 61.6 0 2.5 -15 16.6 -17.4 16.4 -0.6 0 -4.7 -3.1 -9.1 -6.8z"/>
  <path d="M12.9 139.8 c-6.9 -7.2 -7.9 -9.7 -5.3 -13.6 2.3 -3.5 70.1 -71.4 85.8 -85.9 17 -15.7 19.3 -17.4 22.5 -16.7 4.4 1.1 10.5 5.1 12.3 8.2 1.7 2.8 1.7 3.1 -0.5 7 -3.4 6.3 -17.2 21.2 -44.9 48.7 -38.6 38.3 -60.1 58.5 -62.1 58.5 -1.1 0 -4.6 -2.8 -7.8 -6.2z"/>
 </g>
</svg>